<svg width="83" height="83" fill="none" xmlns="http://www.w3.org/2000/svg"><path d="M8.065 63.835c-13.923-15.3 4.725-48.167 16.794-50.906 12.102-2.768 39.354 27.313 35.495 39.008-3.861 11.758-38.338 27.23-52.29 11.898z" fill="url(#paint0_linear_516_47)"/><path d="M8.065 63.835c-13.923-15.3 4.725-48.167 16.794-50.906 12.102-2.768 39.354 27.313 35.495 39.008-3.861 11.758-38.338 27.23-52.29 11.898z" fill="#fff" fill-opacity=".5"/><path d="M30.4 60.572c-1.69-.117-3.24-.573-4.65-1.369-1.375-.827-2.541-2.022-3.499-3.587-.922-1.594-1.603-3.556-2.042-5.883-.437-2.36-.546-5.131-.328-8.313.22-3.18.705-5.894 1.459-8.14.756-2.278 1.699-4.127 2.829-5.548 1.162-1.418 2.48-2.426 3.953-3.024 1.506-.596 3.104-.835 4.794-.72 1.69.117 3.223.572 4.6 1.366 1.377.794 2.528 1.972 3.453 3.533.927 1.529 1.593 3.456 2 5.781.439 2.328.549 5.082.33 8.263-.218 3.181-.706 5.91-1.462 8.19-.72 2.247-1.647 4.098-2.779 5.551-1.132 1.454-2.435 2.496-3.91 3.127-1.475.631-3.058.889-4.748.773zm.22-3.93c1.127.077 2.138-.103 3.034-.541.896-.438 1.68-1.2 2.355-2.285.674-1.086 1.222-2.53 1.646-4.332.459-1.833.78-4.074.962-6.725.182-2.651.187-4.898.014-6.741-.17-1.876-.516-3.398-1.035-4.566-.519-1.168-1.192-2.03-2.02-2.586-.827-.556-1.803-.873-2.93-.95-1.127-.078-2.155.101-3.084.537-.895.437-1.697 1.198-2.404 2.281-.674 1.086-1.24 2.545-1.699 4.378-.424 1.802-.726 4.029-.909 6.68-.182 2.65-.188 4.914-.017 6.79.206 1.845.568 3.352 1.087 4.52.52 1.167 1.192 2.03 2.02 2.585.86.559 1.854.877 2.98.955zM54.31 41.99l1.1-16.005 8.4.578c3.712.255 6.54 1.265 8.482 3.03 1.976 1.767 2.851 4.291 2.626 7.572-.117 1.69-.515 3.127-1.196 4.312a7.646 7.646 0 01-2.694 2.861c-1.112.69-2.428 1.182-3.947 1.477-1.516.262-3.185.33-5.008.205l-3.33-.23-.29 4.226 10.388.714-.24 3.48-10.388-.715-.58 8.45-4.673-.322.581-8.45-4.076-.28.24-3.479 4.075.28.29-4.225-4.075-.28.24-3.48 4.075.281zm5.496-11.658l-.823 11.98 3.33.228c2.419.167 4.292-.204 5.62-1.111 1.362-.939 2.117-2.468 2.263-4.59.134-1.954-.33-3.434-1.393-4.44-1.027-1.036-2.784-1.64-5.269-1.81l-3.728-.257z" fill="#21201F"/><defs><linearGradient id="paint0_linear_516_47" x1="8.079" y1="63.851" x2="48.581" y2="26.997" gradientUnits="userSpaceOnUse"><stop stop-color="#FF5C4D"/><stop offset=".25" stop-color="#EB469F"/><stop offset=".72" stop-color="#8341EF"/><stop offset="1" stop-color="#3F68F9"/></linearGradient></defs></svg>