<svg width="83" height="83" fill="none" xmlns="http://www.w3.org/2000/svg"><path d="M.86 53.543C-6.162 30.14 31.701 1.985 46.734 19.429c9.942 11.533 9.206 39.176-5.207 49.894C27.114 80.04 5.5 69.018.859 53.543z" fill="url(#paint0_linear_516_65)"/><path d="M.86 53.543C-6.162 30.14 31.701 1.985 46.734 19.429c9.942 11.533 9.206 39.176-5.207 49.894C27.114 80.04 5.5 69.018.859 53.543z" fill="#fff" fill-opacity=".5"/><path d="M22.802 40.817a7.737 7.737 0 017.033-8.381l30.344-2.655a7.737 7.737 0 018.381 7.033l.86 9.824a7.737 7.737 0 01-7.033 8.382l-30.344 2.655a7.737 7.737 0 01-8.382-7.033l-.86-9.825z" stroke="#21201F" stroke-width="3.502"/><defs><linearGradient id="paint0_linear_516_65" x1="51.856" y1="27.898" x2="1.225" y2="55.236" gradientUnits="userSpaceOnUse"><stop stop-color="#FF5C4D"/><stop offset=".25" stop-color="#EB469F"/><stop offset=".72" stop-color="#8341EF"/><stop offset="1" stop-color="#3F68F9"/></linearGradient></defs></svg>