<svg width="83" height="83" fill="none" xmlns="http://www.w3.org/2000/svg"><path d="M11.692 50.196C6.039 32.917 36.527 12.13 48.632 25.008c8.006 8.516 7.413 28.926-4.193 36.84-11.606 7.913-29.01-.226-32.747-11.652z" fill="url(#paint0_linear_516_60)"/><path d="M11.692 50.196C6.039 32.917 36.527 12.13 48.632 25.008c8.006 8.516 7.413 28.926-4.193 36.84-11.606 7.913-29.01-.226-32.747-11.652z" fill="#fff" fill-opacity=".5"/><path d="M45.329 67.881c-12.738.983-22.33-7.234-23.312-19.972-.983-12.737 7.234-22.329 19.972-23.312 5.07-.391 9.753.647 13.604 2.994 5.68 3.48 9.13 9.496 9.708 16.978.983 12.738-7.234 22.33-19.972 23.312zm-4.643-40.01c-10.183 1.438-16.393 9.226-15.577 19.8.856 11.099 8.882 17.975 19.981 17.119 11.1-.857 17.976-8.883 17.12-19.982-.5-6.462-3.419-11.648-8.248-14.572-2.904-1.767-6.393-2.648-10.184-2.604l1.682 21.796-14.13 1.09-.254-3.308 11.037-.851-1.427-18.489zm25.42 4.569l-1.781-2.537 4.101-2.867 1.782 2.537-4.102 2.867zm-6.658-7.293L56.86 23.45l5.014-7.572 2.588 1.698-5.014 7.571zM49.15 20.686l-3.099-.259c.05-.564-.145-1.077-.616-1.538-1.687-1.705-6.386-1.342-7.791.6-.364.526-.478 1.064-.345 1.582l-3.022.731c-.36-1.434-.04-2.92.862-4.14 1.236-1.713 3.512-2.853 6.047-3.048 2.566-.199 4.959.581 6.444 2.084 1.11 1.096 1.655 2.515 1.52 3.988z" fill="#21201F"/><defs><linearGradient id="paint0_linear_516_60" x1="52.756" y1="31.262" x2="13.658" y2="54.284" gradientUnits="userSpaceOnUse"><stop stop-color="#FF5C4D"/><stop offset=".25" stop-color="#EB469F"/><stop offset=".72" stop-color="#8341EF"/><stop offset="1" stop-color="#3F68F9"/></linearGradient></defs></svg>